<?xml version="1.0" encoding="UTF-8" standalone="no"?>
<svg width="16px" height="8px" viewBox="0 0 16 8" version="1.1" xmlns="http://www.w3.org/2000/svg" xmlns:xlink="http://www.w3.org/1999/xlink">
    <!-- Generator: sketchtool 39.1 (31720) - http://www.bohemiancoding.com/sketch -->
    <title>DB2154ED-4885-4E29-ACC7-94670117489B</title>
    <desc>Created with sketchtool.</desc>
    <defs>
        <polygon id="path-1" points="4.33323333 15.9999333 -5.68434189e-14 15.9999333 -5.68434189e-14 -6.66666667e-05 8.66646667 -6.66666667e-05 8.66646667 15.9999333"></polygon>
    </defs>
    <g id="Symbols" stroke="none" stroke-width="1" fill="none" fill-rule="evenodd">
        <g id="Drawer_Contents_Sections" transform="translate(-368.000000, -257.000000)">
            <g id="cell">
                <g transform="translate(0.000000, 224.000000)">
                    <g id="ic_closeup" transform="translate(376.000000, 36.833333) rotate(90.000000) translate(-376.000000, -36.833333) translate(371.500000, 28.833333)">
                        <mask id="mask-2" fill="white">
                            <use xlink:href="#path-1"></use>
                        </mask>
                        <g id="Clip-2"></g>
                        <path d="M2.60946667,7.99993333 L9.47146667,1.13793333 C9.73146667,0.877266667 9.73146667,0.455933333 9.47146667,0.195266667 C9.21146667,-0.0654 8.7888,-0.0654 8.5288,0.195266667 L1.19546667,7.5286 C0.9348,7.78926667 0.9348,8.2106 1.19546667,8.47126667 L8.5288,15.8046 C8.6588,15.9346 8.82946667,15.9999333 9.00013333,15.9999333 C9.1708,15.9999333 9.34146667,15.9346 9.47146667,15.8046 C9.73146667,15.5439333 9.73146667,15.1226 9.47146667,14.8619333 L2.60946667,7.99993333 Z" id="Fill-1" fill="#3E3E3E" mask="url(#mask-2)"></path>
                    </g>
                </g>
            </g>
        </g>
    </g>
</svg>